# xmcd
#
# Track frame offsets: 
#        150
#        13391
#        26167
#        39078
#        52231
#        63962
#        74997
#        89123
#        102033
#        116092
#        131847
#        143770
#        157267
#        169826
#        186064
#        200114
#        214081
#        226405
#
# Disc length: 3219 seconds
#
# Revision: 0
# Processed by: cddbd v1.5.2PL0 Copyright (c) Steve Scherf et al.
# Submitted via: ExactAudioCopyFreeDBPlugin 1.0
#
DISCID=1d0c9112
DTITLE=Various Artist - Solid Gold Blues CD2
DYEAR=2007
DGENRE=Blues
TTITLE0=Etta James - Roll With Me henry
TTITLE1=Big Mama Thornton - Hound Dog
TTITLE2=Dinah Washington - Evil Gal Blues
TTITLE3=Ruth Brown - Mama, He Treats Your Daughter Mean
TTITLE4=Sister Rosetta Tharpe - Rock Me
TTITLE5=Camille Howard - Fireball Boogie
TTITLE6=Ethel Waters - Frankie and Johnny
TTITLE7=Alberta Hunter - Down Hearted Blues
TTITLE8=Clara Smith - Gin Mill Blues
TTITLE9=Bessie Smith - Gimme A Pigfoot (And A Bottle Of Beer)
TTITLE10=Ma Rainey - Shave 'Em Dry
TTITLE11=Lucille Bogan - Baking Powder Blues
TTITLE12=Memphis Minnie - Me And My Chauffeur Blues
TTITLE13=Ida Cox - Any Woman's Blues
TTITLE14=Victoria Spivey - Black Snake Blues
TTITLE15=Sippie Wallace - I'm A Mighty Tight Woman
TTITLE16=Bertha "Chippie" Hill - Trouble In Mind
TTITLE17=Mamie Smith - Crazy Blues
EXTD=
EXTT0=
EXTT1=
EXTT2=
EXTT3=
EXTT4=
EXTT5=
EXTT6=
EXTT7=
EXTT8=
EXTT9=
EXTT10=
EXTT11=
EXTT12=
EXTT13=
EXTT14=
EXTT15=
EXTT16=
EXTT17=
PLAYORDER=
